<svg xmlns="http://www.w3.org/2000/svg" width="1600" height="900" viewBox="0 0 1600 900" preserveAspectRatio="xMidYMid slice">
  <defs>
    <linearGradient id="g1" x1="0" x2="1" y1="0" y2="1">
      <stop offset="0%" stop-color="#0f172a" stop-opacity="0.85"/>
      <stop offset="100%" stop-color="#0b1220" stop-opacity="0.85"/>
    </linearGradient>
    <linearGradient id="acc" x1="0" x2="1">
      <stop offset="0%" stop-color="#f97316" stop-opacity="0.95"/>
      <stop offset="100%" stop-color="#ef4444" stop-opacity="0.95"/>
    </linearGradient>
  </defs>

  <rect width="100%" height="100%" fill="url(#g1)" />

  <!-- abstract overlapping shapes -->
  <g opacity="0.12">
    <ellipse cx="1200" cy="200" rx="420" ry="260" fill="#ffffff" />
    <ellipse cx="300" cy="700" rx="500" ry="300" fill="#ffffff" />
  </g>

  <!-- angled panel -->
  <path d="M900 0 L1600 0 L1600 400 L900 200 Z" fill="url(#acc)" opacity="0.08" />
  <path d="M0 900 L700 900 L700 600 L0 720 Z" fill="url(#acc)" opacity="0.06" />

  <!-- stylized shirt icon (simple) -->
  <g transform="translate(120,120) scale(1.3)" fill="#ffffff" opacity="0.12">
    <path d="M140 40 L170 40 L190 20 L210 40 L240 40 L240 100 L200 120 L200 160 L120 160 L120 120 L80 100 L80 40 Z" />
  </g>

</svg>
